<svg width="136" height="107" viewBox="0 0 136 107" fill="none" xmlns="http://www.w3.org/2000/svg">
<g clip-path="url(#clip0_0_1921)">
<path d="M134.832 4.67836C128.543 2.5771 122.089 1.01995 115.54 0.0237244C115.169 -0.0581999 114.782 -0.0063287 114.445 0.17034C114.108 0.347009 113.843 0.637321 113.696 0.990933C113.548 1.34454 113.528 1.73914 113.638 2.10626C113.749 2.47339 113.983 2.78989 114.3 3.00086C116.51 4.52529 118.852 5.84665 121.295 6.9491C109.972 10.9411 98.6311 15.2197 88.3696 21.5427C83.8002 24.2859 79.487 27.4433 75.4831 30.9761C74.684 30.664 73.8693 30.3947 73.0422 30.1693C61.7029 27.152 50.0079 31.9052 40.8783 38.5258C19.4218 54.085 5.01156 80.0834 0.0179824 105.965C-0.180605 107 1.34852 107.451 1.59766 106.405C5.47505 89.1082 13.0862 72.8918 23.8864 58.9167C33.944 46.1539 48.5943 31.8213 65.8967 32.1042C68.3607 32.1378 70.809 32.5062 73.1758 33.1994C69.4445 36.7749 66.6886 41.2633 65.1746 46.2305C60.3489 64.484 87.6565 67.0012 88.4382 48.8408C88.5037 45.4931 87.6387 42.1939 85.9414 39.3187C84.2441 36.4435 81.7828 34.1077 78.8374 32.577C79.5956 31.9016 80.3617 31.2439 81.1356 30.6038C94.2044 19.8068 110.563 14.1263 126.294 8.63753C126.596 8.5438 126.864 8.36223 127.065 8.11546C127.265 7.86868 127.389 7.56766 127.421 7.25002C127.453 6.93238 127.392 6.61218 127.245 6.32947C127.099 6.04675 126.873 5.81403 126.596 5.66039C127.913 6.00477 129.225 6.36985 130.533 6.75561C126.751 9.37802 123.573 12.7942 121.216 16.7713C120.12 18.5693 122.918 20.2157 124.011 18.4141C126.714 13.8655 130.588 10.1435 135.218 7.64455C135.48 7.47538 135.688 7.23434 135.819 6.94969C135.95 6.66503 135.998 6.34852 135.958 6.03726C135.917 5.72601 135.79 5.43289 135.59 5.19222C135.391 4.95155 135.128 4.7733 134.832 4.67836ZM78.4817 58.2614C71.5949 59.9127 68.1835 56.1878 68.2473 47.0866C69.2685 43.9274 70.9105 41.0093 73.0747 38.5075C74.2001 37.1279 75.4058 35.8174 76.6854 34.583C78.3015 35.3808 79.7851 36.4276 81.0832 37.6861C86.6599 43.226 88.0645 55.465 78.4817 58.2614Z" fill="#A0051B"/>
</g>
<defs>
<clipPath id="clip0_0_1921">
<rect width="136" height="107" fill="white"/>
</clipPath>
</defs>
</svg>
