<svg width="28" height="26" viewBox="0 0 28 26" fill="none" xmlns="http://www.w3.org/2000/svg">
<path d="M6.3525 14.5783C6.18187 14.6426 6.02691 14.7453 5.89859 14.8789C5.77028 15.0126 5.67175 15.174 5.61 15.3518C5.50998 15.612 5.4855 15.8972 5.53958 16.1718C5.59367 16.4465 5.72394 16.6986 5.91426 16.8968C6.10458 17.095 6.34657 17.2308 6.61023 17.2871C6.87389 17.3434 7.14762 17.3179 7.3975 17.2137C7.56413 17.1412 7.7176 17.0395 7.85125 16.913C7.97271 16.7737 8.07037 16.6139 8.14 16.4403C8.21697 16.2703 8.25465 16.0839 8.25 15.896C8.24494 15.5168 8.10251 15.1536 7.85125 14.8791C7.65789 14.6804 7.41235 14.5457 7.14562 14.4922C6.87888 14.4387 6.6029 14.4686 6.3525 14.5783ZM24.42 8.84915L22.55 3.07702C22.2648 2.23659 21.7357 1.50938 21.036 0.996128C20.3363 0.482877 19.5007 0.208998 18.645 0.212434H8.855C7.99926 0.208998 7.16367 0.482877 6.46401 0.996128C5.76435 1.50938 5.23524 2.23659 4.95 3.07702L3.08 8.89212C2.20045 9.13204 1.42163 9.66795 0.864641 10.4165C0.307646 11.1651 0.00368035 12.0844 0 13.0314V18.7606C0.00239183 19.6471 0.267958 20.5112 0.76029 21.2343C1.25262 21.9574 1.94762 22.5042 2.75 22.7997V24.4898C2.75 24.8696 2.89487 25.234 3.15273 25.5026C3.41059 25.7712 3.76033 25.9221 4.125 25.9221C4.48967 25.9221 4.83941 25.7712 5.09727 25.5026C5.35513 25.234 5.5 24.8696 5.5 24.4898V23.0575H22V24.4898C22 24.8696 22.1449 25.234 22.4027 25.5026C22.6606 25.7712 23.0103 25.9221 23.375 25.9221C23.7397 25.9221 24.0894 25.7712 24.3473 25.5026C24.6051 25.234 24.75 24.8696 24.75 24.4898V22.7997C25.5524 22.5042 26.2474 21.9574 26.7397 21.2343C27.232 20.5112 27.4976 19.6471 27.5 18.7606V13.0314C27.4963 12.0844 27.1924 11.1651 26.6354 10.4165C26.0784 9.66795 25.2996 9.13204 24.42 8.89212V8.84915ZM7.54875 3.97936C7.64099 3.69488 7.81673 3.44779 8.05114 3.27302C8.28554 3.09824 8.56674 3.00463 8.855 3.0054H18.645C18.9448 2.9891 19.2416 3.07548 19.4898 3.25135C19.7381 3.42722 19.9243 3.6829 20.02 3.97936L21.4638 8.73457H6.03625L7.54875 3.97936ZM24.75 18.7606C24.75 19.1405 24.6051 19.5048 24.3473 19.7734C24.0894 20.042 23.7397 20.1929 23.375 20.1929H4.125C3.76033 20.1929 3.41059 20.042 3.15273 19.7734C2.89487 19.5048 2.75 19.1405 2.75 18.7606V13.0314C2.75 12.6516 2.89487 12.2873 3.15273 12.0187C3.41059 11.7501 3.76033 11.5992 4.125 11.5992H23.375C23.7397 11.5992 24.0894 11.7501 24.3473 12.0187C24.6051 12.2873 24.75 12.6516 24.75 13.0314V18.7606ZM20.1025 14.5783C19.9319 14.6426 19.7769 14.7453 19.6486 14.8789C19.5203 15.0126 19.4218 15.174 19.36 15.3518C19.26 15.612 19.2355 15.8972 19.2896 16.1718C19.3437 16.4465 19.4739 16.6986 19.6643 16.8968C19.8546 17.095 20.0966 17.2308 20.3602 17.2871C20.6239 17.3434 20.8976 17.3179 21.1475 17.2137C21.3181 17.1494 21.4731 17.0468 21.6014 16.9131C21.7297 16.7795 21.8282 16.618 21.89 16.4403C21.967 16.2703 22.0046 16.0839 22 15.896C21.9949 15.5168 21.8525 15.1536 21.6012 14.8791C21.4079 14.6804 21.1624 14.5457 20.8956 14.4922C20.6289 14.4387 20.3529 14.4686 20.1025 14.5783ZM15.125 14.4637H12.375C12.0103 14.4637 11.6606 14.6146 11.4027 14.8832C11.1449 15.1519 11 15.5162 11 15.896C11 16.2759 11.1449 16.6402 11.4027 16.9088C11.6606 17.1774 12.0103 17.3283 12.375 17.3283H15.125C15.4897 17.3283 15.8394 17.1774 16.0973 16.9088C16.3551 16.6402 16.5 16.2759 16.5 15.896C16.5 15.5162 16.3551 15.1519 16.0973 14.8832C15.8394 14.6146 15.4897 14.4637 15.125 14.4637Z" fill="white"/>
</svg>
