<svg width="21" height="21" viewBox="0 0 21 21" fill="none" xmlns="http://www.w3.org/2000/svg">
<path d="M10.5 20.9168C4.74692 20.9168 0.083374 16.2533 0.083374 10.5002C0.083374 4.74704 4.74692 0.0834961 10.5 0.0834961C16.2532 0.0834961 20.9167 4.74704 20.9167 10.5002C20.9167 16.2533 16.2532 20.9168 10.5 20.9168ZM10.5 18.8335C12.7102 18.8335 14.8298 17.9555 16.3926 16.3927C17.9554 14.8299 18.8334 12.7103 18.8334 10.5002C18.8334 8.29003 17.9554 6.17041 16.3926 4.60761C14.8298 3.0448 12.7102 2.16683 10.5 2.16683C8.2899 2.16683 6.17029 3.0448 4.60748 4.60761C3.04468 6.17041 2.16671 8.29003 2.16671 10.5002C2.16671 12.7103 3.04468 14.8299 4.60748 16.3927C6.17029 17.9555 8.2899 18.8335 10.5 18.8335ZM11.5417 10.5002H15.7084V12.5835H9.45837V5.29183H11.5417V10.5002Z" fill="white"/>
</svg>
