<svg width="29" height="26" viewBox="0 0 29 26" fill="none" xmlns="http://www.w3.org/2000/svg">
<path d="M26.875 25.9219H2.125C1.76033 25.9219 1.41059 25.771 1.15273 25.5024C0.894866 25.2338 0.75 24.8694 0.75 24.4896V13.7288C0.749979 13.5241 0.792062 13.3218 0.873417 13.1355C0.954771 12.9493 1.07351 12.7833 1.22162 12.6488L6.25 8.08125V1.57292C6.25 1.19305 6.39487 0.82874 6.65273 0.560133C6.91059 0.291527 7.26033 0.140625 7.625 0.140625H26.875C27.2397 0.140625 27.5894 0.291527 27.8473 0.560133C28.1051 0.82874 28.25 1.19305 28.25 1.57292V24.4896C28.25 24.8694 28.1051 25.2338 27.8473 25.5024C27.5894 25.771 27.2397 25.9219 26.875 25.9219ZM10.375 23.0573H14.5V14.3805L9 9.38464L3.5 14.3805V23.0573H7.625V17.3281H10.375V23.0573ZM17.25 23.0573H25.5V3.00521H9V6.05169C9.32175 6.05169 9.64487 6.16914 9.90337 6.40547L16.7784 12.6488C16.9265 12.7833 17.0452 12.9493 17.1266 13.1355C17.2079 13.3218 17.25 13.5241 17.25 13.7288V23.0573ZM20 11.599H22.75V14.4635H20V11.599ZM20 17.3281H22.75V20.1927H20V17.3281ZM20 5.86979H22.75V8.73438H20V5.86979ZM14.5 5.86979H17.25V8.73438H14.5V5.86979Z" fill="white"/>
</svg>
