<svg width="19" height="19" viewBox="0 0 19 19" fill="none" xmlns="http://www.w3.org/2000/svg">
<path d="M10.2404 6.54073L11.3499 7.65022C11.8596 8.1599 12.264 8.76498 12.5398 9.43093C12.8157 10.0969 12.9577 10.8106 12.9577 11.5315C12.9577 12.2523 12.8157 12.9661 12.5398 13.632C12.264 14.298 11.8596 14.903 11.3499 15.4127L11.0723 15.6895C10.0429 16.7189 8.64682 17.2972 7.19107 17.2972C5.73531 17.2972 4.33919 16.7189 3.30982 15.6895C2.28044 14.6601 1.70215 13.264 1.70215 11.8083C1.70215 10.3525 2.28044 8.95638 3.30982 7.92701L4.4193 9.03649C4.05264 9.39996 3.76138 9.83227 3.56224 10.3086C3.3631 10.7849 3.26 11.2959 3.25887 11.8122C3.25774 12.3285 3.3586 12.8399 3.55565 13.3171C3.7527 13.7943 4.04207 14.2279 4.40714 14.593C4.77221 14.958 5.20579 15.2474 5.68299 15.4445C6.16019 15.6415 6.67162 15.7424 7.1879 15.7412C7.70419 15.7401 8.21516 15.637 8.6915 15.4379C9.16783 15.2387 9.60014 14.9475 9.96361 14.5808L10.2412 14.3032C10.9762 13.568 11.389 12.571 11.389 11.5315C11.389 10.4919 10.9762 9.4949 10.2412 8.75971L9.13169 7.65022L10.2412 6.54152L10.2404 6.54073ZM15.5079 11.2539L14.3992 10.1452C14.7659 9.78173 15.0571 9.34942 15.2563 8.87309C15.4554 8.39675 15.5585 7.88577 15.5596 7.36949C15.5608 6.8532 15.4599 6.34178 15.2629 5.86458C15.0658 5.38738 14.7765 4.95379 14.4114 4.58873C14.0463 4.22366 13.6127 3.93429 13.1355 3.73724C12.6583 3.54019 12.1469 3.43933 11.6306 3.44046C11.1143 3.44159 10.6034 3.54469 10.127 3.74382C9.65068 3.94296 9.21837 4.23423 8.85491 4.60089L8.57734 4.87846C7.84237 5.61365 7.42948 6.61066 7.42948 7.65022C7.42948 8.68979 7.84237 9.68679 8.57734 10.422L9.68683 11.5315L8.57734 12.6402L7.46863 11.5315C6.95891 11.0218 6.55457 10.4167 6.2787 9.75076C6.00284 9.08481 5.86085 8.37105 5.86085 7.65022C5.86085 6.9294 6.00284 6.21563 6.2787 5.54968C6.55457 4.88373 6.95891 4.27865 7.46863 3.76897L7.7462 3.49219C8.77557 2.46282 10.1717 1.88452 11.6275 1.88452C13.0832 1.88452 14.4793 2.46282 15.5087 3.49219C16.5381 4.52156 17.1164 5.91769 17.1164 7.37344C17.1164 8.82919 16.5381 10.2253 15.5087 11.2547L15.5079 11.2539Z" fill="#A0051B"/>
</svg>
