<svg width="18" height="18" viewBox="0 0 18 18" fill="none" xmlns="http://www.w3.org/2000/svg">
<path d="M9.00008 17.3334C4.39758 17.3334 0.666748 13.6026 0.666748 9.00008C0.666748 4.39758 4.39758 0.666748 9.00008 0.666748C13.6026 0.666748 17.3334 4.39758 17.3334 9.00008C17.3334 13.6026 13.6026 17.3334 9.00008 17.3334ZM9.00008 15.6667C10.7682 15.6667 12.4639 14.9644 13.7141 13.7141C14.9644 12.4639 15.6667 10.7682 15.6667 9.00008C15.6667 7.23197 14.9644 5.53628 13.7141 4.28604C12.4639 3.03579 10.7682 2.33341 9.00008 2.33341C7.23197 2.33341 5.53628 3.03579 4.28604 4.28604C3.03579 5.53628 2.33341 7.23197 2.33341 9.00008C2.33341 10.7682 3.03579 12.4639 4.28604 13.7141C5.53628 14.9644 7.23197 15.6667 9.00008 15.6667ZM6.08342 10.6667H10.6667C10.7773 10.6667 10.8832 10.6228 10.9614 10.5447C11.0395 10.4666 11.0834 10.3606 11.0834 10.2501C11.0834 10.1396 11.0395 10.0336 10.9614 9.95545C10.8832 9.87731 10.7773 9.83341 10.6667 9.83341H7.33342C6.78088 9.83341 6.25098 9.61392 5.86028 9.22322C5.46957 8.83252 5.25008 8.30262 5.25008 7.75008C5.25008 7.19755 5.46957 6.66764 5.86028 6.27694C6.25098 5.88624 6.78088 5.66675 7.33342 5.66675H8.16675V4.00008H9.83342V5.66675H11.9167V7.33341H7.33342C7.22291 7.33341 7.11693 7.37731 7.03879 7.45545C6.96065 7.53359 6.91675 7.63957 6.91675 7.75008C6.91675 7.86059 6.96065 7.96657 7.03879 8.04471C7.11693 8.12285 7.22291 8.16675 7.33342 8.16675H10.6667C11.2193 8.16675 11.7492 8.38624 12.1399 8.77694C12.5306 9.16764 12.7501 9.69755 12.7501 10.2501C12.7501 10.8026 12.5306 11.3325 12.1399 11.7232C11.7492 12.1139 11.2193 12.3334 10.6667 12.3334H9.83342V14.0001H8.16675V12.3334H6.08342V10.6667Z" fill="#A0051B"/>
</svg>
