<svg width="18" height="16" viewBox="0 0 18 16" fill="none" xmlns="http://www.w3.org/2000/svg">
<path d="M16.5001 15.6538H1.50008C1.27907 15.6538 1.06711 15.5653 0.910826 15.4076C0.754545 15.25 0.666748 15.0361 0.666748 14.8132V8.49731C0.666735 8.37719 0.69224 8.25846 0.741546 8.14912C0.790852 8.03978 0.862813 7.94237 0.952581 7.86345L4.00008 5.18259V1.36263C4.00008 1.13968 4.08788 0.92585 4.24416 0.768196C4.40044 0.610542 4.6124 0.521973 4.83342 0.521973H16.5001C16.7211 0.521973 16.9331 0.610542 17.0893 0.768196C17.2456 0.92585 17.3334 1.13968 17.3334 1.36263V14.8132C17.3334 15.0361 17.2456 15.25 17.0893 15.4076C16.9331 15.5653 16.7211 15.6538 16.5001 15.6538ZM6.50008 13.9725H9.00008V8.87981L5.66675 5.94759L2.33341 8.87981V13.9725H4.83342V10.6099H6.50008V13.9725ZM10.6667 13.9725H15.6667V2.20329H5.66675V3.99137C5.86175 3.99137 6.05758 4.06031 6.21425 4.19902L10.3809 7.86345C10.4707 7.94237 10.5426 8.03978 10.592 8.14912C10.6413 8.25846 10.6668 8.37719 10.6667 8.49731V13.9725ZM12.3334 7.24725H14.0001V8.92857H12.3334V7.24725ZM12.3334 10.6099H14.0001V12.2912H12.3334V10.6099ZM12.3334 3.88461H14.0001V5.56593H12.3334V3.88461ZM9.00008 3.88461H10.6667V5.56593H9.00008V3.88461Z" fill="#A0051B"/>
</svg>
