<svg width="67" height="67" viewBox="0 0 67 67" fill="none" xmlns="http://www.w3.org/2000/svg">
<path d="M67 33.5L50.25 62.5118L16.75 62.5118L-1.46433e-06 33.5L16.75 4.48815L50.25 4.48815L67 33.5Z" fill="white"/>
<path d="M48.3887 46.8996H18.611V43.9218H20.0999V21.5885C20.0999 21.1936 20.2567 20.8149 20.5359 20.5357C20.8152 20.2565 21.1939 20.0996 21.5887 20.0996H42.4332C42.8281 20.0996 43.2068 20.2565 43.486 20.5357C43.7652 20.8149 43.9221 21.1936 43.9221 21.5885V29.0329H46.8999V43.9218H48.3887V46.8996ZM40.9443 43.9218H43.9221V32.0107H34.9887V43.9218H37.9665V34.9885H40.9443V43.9218ZM40.9443 29.0329V23.0774H23.0776V43.9218H32.011V29.0329H40.9443ZM26.0554 32.0107H29.0332V34.9885H26.0554V32.0107ZM26.0554 37.9663H29.0332V40.9441H26.0554V37.9663ZM26.0554 26.0552H29.0332V29.0329H26.0554V26.0552Z" fill="url(#paint0_linear_0_1648)"/>
<defs>
<linearGradient id="paint0_linear_0_1648" x1="33.4999" y1="20.0996" x2="33.4999" y2="46.8996" gradientUnits="userSpaceOnUse">
<stop stop-color="#A0051B"/>
<stop offset="1" stop-color="#D00724"/>
</linearGradient>
</defs>
</svg>
