<svg width="18" height="18" viewBox="0 0 18 18" fill="none" xmlns="http://www.w3.org/2000/svg">
<path d="M9.00008 8.16675C10.1052 8.16675 11.165 8.60574 11.9464 9.38714C12.7278 10.1685 13.1667 11.2283 13.1667 12.3334V17.3334H11.5001V12.3334C11.5001 11.6957 11.2565 11.0822 10.819 10.6182C10.3815 10.1542 9.78333 9.87499 9.14675 9.83758L9.00008 9.83342C8.36241 9.83338 7.74882 10.077 7.28486 10.5145C6.82091 10.952 6.54166 11.5502 6.50425 12.1867L6.50008 12.3334V17.3334H4.83342V12.3334C4.83342 11.2283 5.2724 10.1685 6.0538 9.38714C6.83521 8.60574 7.89501 8.16675 9.00008 8.16675ZM3.58341 10.6667C3.81591 10.6667 4.04175 10.6942 4.25841 10.7451C4.11593 11.1693 4.03156 11.6108 4.00758 12.0576L4.00008 12.3334V12.4051C3.90429 12.3708 3.80466 12.3484 3.70341 12.3384L3.58341 12.3334C3.27268 12.3334 2.97309 12.4492 2.74307 12.6581C2.51304 12.867 2.36908 13.1541 2.33925 13.4634L2.33341 13.5834V17.3334H0.666748V13.5834C0.666748 12.8099 0.974039 12.068 1.52102 11.521C2.068 10.974 2.80987 10.6667 3.58341 10.6667ZM14.4167 10.6667C15.1903 10.6667 15.9322 10.974 16.4791 11.521C17.0261 12.068 17.3334 12.8099 17.3334 13.5834V17.3334H15.6667V13.5834C15.6667 13.2727 15.551 12.9731 15.3421 12.7431C15.1332 12.513 14.846 12.3691 14.5367 12.3392L14.4167 12.3334C14.2709 12.3334 14.1309 12.3584 14.0001 12.4042V12.3334C14.0001 11.7784 13.9101 11.2451 13.7426 10.7467C13.9584 10.6942 14.1842 10.6667 14.4167 10.6667ZM3.58341 5.66675C4.13595 5.66675 4.66585 5.88624 5.05655 6.27694C5.44725 6.66764 5.66675 7.19755 5.66675 7.75008C5.66675 8.30262 5.44725 8.83252 5.05655 9.22322C4.66585 9.61392 4.13595 9.83342 3.58341 9.83342C3.03088 9.83342 2.50098 9.61392 2.11028 9.22322C1.71957 8.83252 1.50008 8.30262 1.50008 7.75008C1.50008 7.19755 1.71957 6.66764 2.11028 6.27694C2.50098 5.88624 3.03088 5.66675 3.58341 5.66675ZM14.4167 5.66675C14.9693 5.66675 15.4992 5.88624 15.8899 6.27694C16.2806 6.66764 16.5001 7.19755 16.5001 7.75008C16.5001 8.30262 16.2806 8.83252 15.8899 9.22322C15.4992 9.61392 14.9693 9.83342 14.4167 9.83342C13.8642 9.83342 13.3343 9.61392 12.9436 9.22322C12.5529 8.83252 12.3334 8.30262 12.3334 7.75008C12.3334 7.19755 12.5529 6.66764 12.9436 6.27694C13.3343 5.88624 13.8642 5.66675 14.4167 5.66675ZM3.58341 7.33342C3.47291 7.33342 3.36693 7.37731 3.28879 7.45545C3.21065 7.53359 3.16675 7.63958 3.16675 7.75008C3.16675 7.86059 3.21065 7.96657 3.28879 8.04471C3.36693 8.12285 3.47291 8.16675 3.58341 8.16675C3.69392 8.16675 3.7999 8.12285 3.87804 8.04471C3.95618 7.96657 4.00008 7.86059 4.00008 7.75008C4.00008 7.63958 3.95618 7.53359 3.87804 7.45545C3.7999 7.37731 3.69392 7.33342 3.58341 7.33342ZM14.4167 7.33342C14.3062 7.33342 14.2003 7.37731 14.1221 7.45545C14.044 7.53359 14.0001 7.63958 14.0001 7.75008C14.0001 7.86059 14.044 7.96657 14.1221 8.04471C14.2003 8.12285 14.3062 8.16675 14.4167 8.16675C14.5273 8.16675 14.6332 8.12285 14.7114 8.04471C14.7895 7.96657 14.8334 7.86059 14.8334 7.75008C14.8334 7.63958 14.7895 7.53359 14.7114 7.45545C14.6332 7.37731 14.5273 7.33342 14.4167 7.33342ZM9.00008 0.666748C9.88414 0.666748 10.732 1.01794 11.3571 1.64306C11.9822 2.26818 12.3334 3.11603 12.3334 4.00008C12.3334 4.88414 11.9822 5.73198 11.3571 6.3571C10.732 6.98223 9.88414 7.33342 9.00008 7.33342C8.11603 7.33342 7.26818 6.98223 6.64306 6.3571C6.01794 5.73198 5.66675 4.88414 5.66675 4.00008C5.66675 3.11603 6.01794 2.26818 6.64306 1.64306C7.26818 1.01794 8.11603 0.666748 9.00008 0.666748ZM9.00008 2.33341C8.55805 2.33341 8.13413 2.50901 7.82157 2.82157C7.50901 3.13413 7.33342 3.55805 7.33342 4.00008C7.33342 4.44211 7.50901 4.86603 7.82157 5.17859C8.13413 5.49115 8.55805 5.66675 9.00008 5.66675C9.44211 5.66675 9.86603 5.49115 10.1786 5.17859C10.4912 4.86603 10.6667 4.44211 10.6667 4.00008C10.6667 3.55805 10.4912 3.13413 10.1786 2.82157C9.86603 2.50901 9.44211 2.33341 9.00008 2.33341Z" fill="#A0051B"/>
</svg>
