<svg width="23" height="30" viewBox="0 0 23 30" fill="none" xmlns="http://www.w3.org/2000/svg">
<path d="M21.125 0.708008C20.7603 0.708008 20.4106 0.858909 20.1527 1.12752C19.8949 1.39612 19.75 1.76043 19.75 2.1403V9.96061L18.375 10.9202V2.1403C18.375 1.76043 18.2301 1.39612 17.9723 1.12752C17.7144 0.858909 17.3647 0.708008 17 0.708008C16.6353 0.708008 16.2856 0.858909 16.0277 1.12752C15.7699 1.39612 15.625 1.76043 15.625 2.1403V10.9202L14.25 9.96061V2.1403C14.25 1.76043 14.1051 1.39612 13.8473 1.12752C13.5894 0.858909 13.2397 0.708008 12.875 0.708008C12.5103 0.708008 12.1606 0.858909 11.9027 1.12752C11.6449 1.39612 11.5 1.76043 11.5 2.1403V10.734C11.5012 10.97 11.5583 11.2019 11.6662 11.4093C11.7742 11.6167 11.9296 11.7931 12.1187 11.9229L15.625 14.3721V27.9216C15.625 28.3014 15.7699 28.6657 16.0277 28.9343C16.2856 29.2029 16.6353 29.3538 17 29.3538C17.3647 29.3538 17.7144 29.2029 17.9723 28.9343C18.2301 28.6657 18.375 28.3014 18.375 27.9216V14.3721L21.8812 11.9229C22.0704 11.7931 22.2258 11.6167 22.3338 11.4093C22.4417 11.2019 22.4988 10.97 22.5 10.734V2.1403C22.5 1.76043 22.3551 1.39612 22.0973 1.12752C21.8394 0.858909 21.4897 0.708008 21.125 0.708008ZM7.375 0.708008C5.55164 0.708008 3.80295 1.46252 2.51364 2.80555C1.22433 4.14858 0.5 5.97013 0.5 7.86947V16.4632C0.5 16.8431 0.644866 17.2074 0.902728 17.476C1.16059 17.7446 1.51033 17.8955 1.875 17.8955H6V27.9216C6 28.3014 6.14487 28.6657 6.40273 28.9343C6.66059 29.2029 7.01033 29.3538 7.375 29.3538C7.73967 29.3538 8.08941 29.2029 8.34727 28.9343C8.60513 28.6657 8.75 28.3014 8.75 27.9216V2.1403C8.75 1.76043 8.60513 1.39612 8.34727 1.12752C8.08941 0.858909 7.73967 0.708008 7.375 0.708008ZM6 15.0309H3.25V7.86947C3.24955 6.98051 3.5138 6.11329 4.00633 5.38733C4.49885 4.66137 5.19541 4.1124 6 3.81608V15.0309Z" fill="white"/>
</svg>
